<svg xmlns="http://www.w3.org/2000/svg" version="1.1" xmlns:xlink="http://www.w3.org/1999/xlink" xmlns:svgjs="http://svgjs.com/svgjs" width="1440" height="560" preserveAspectRatio="none" viewBox="0 0 1440 560"><g mask="url(&quot;#SvgjsMask1096&quot;)" fill="none"><rect width="1440" height="560" x="0" y="0" fill="url(#SvgjsLinearGradient1097)"></rect><path d="M1440 0L1309.23 0L1440 217.38z" fill="rgba(255, 255, 255, .1)"></path><path d="M1309.23 0L1440 217.38L1440 327.7L803.02 0z" fill="rgba(255, 255, 255, .075)"></path><path d="M803.02 0L1440 327.7L1440 373.89L533.47 0z" fill="rgba(255, 255, 255, .05)"></path><path d="M533.47 0L1440 373.89L1440 430.78L368.57000000000005 0z" fill="rgba(255, 255, 255, .025)"></path><path d="M0 560L386.78 560L0 427.96000000000004z" fill="rgba(0, 0, 0, .1)"></path><path d="M0 427.96000000000004L386.78 560L427.62 560L0 376.16z" fill="rgba(0, 0, 0, .075)"></path><path d="M0 376.16L427.62 560L886.25 560L0 347.14000000000004z" fill="rgba(0, 0, 0, .05)"></path><path d="M0 347.14L886.25 560L910.66 560L0 251.87z" fill="rgba(0, 0, 0, .025)"></path></g><defs><mask id="SvgjsMask1096"><rect width="1440" height="560" fill="#ffffff"></rect></mask><linearGradient x1="15.28%" y1="139.29%" x2="84.72%" y2="-39.29%" gradientUnits="userSpaceOnUse" id="SvgjsLinearGradient1097"><stop stop-color="rgba(197, 228, 231, 1)" offset="0"></stop><stop stop-color="rgba(0, 73, 77, 1)" offset="0"></stop></linearGradient></defs></svg>