<svg xmlns="http://www.w3.org/2000/svg" version="1.1" xmlns:xlink="http://www.w3.org/1999/xlink" xmlns:svgjs="http://svgjs.com/svgjs" width="1440" height="560" preserveAspectRatio="none" viewBox="0 0 1440 560"><g mask="url(&quot;#SvgjsMask1002&quot;)" fill="none"><rect width="1440" height="560" x="0" y="0" fill="url(#SvgjsLinearGradient1003)"></rect><path d="M1440 0L773.3 0L1440 254.19z" fill="rgba(255, 255, 255, .1)"></path><path d="M773.3 0L1440 254.19L1440 351.86L613.51 0z" fill="rgba(255, 255, 255, .075)"></path><path d="M613.51 0L1440 351.86L1440 393.53000000000003L266.51 0z" fill="rgba(255, 255, 255, .05)"></path><path d="M266.51 0L1440 393.53000000000003L1440 439.99L243.07999999999998 0z" fill="rgba(255, 255, 255, .025)"></path><path d="M0 560L200.48 560L0 452.46z" fill="rgba(0, 0, 0, .1)"></path><path d="M0 452.46L200.48 560L350.99 560L0 309.54999999999995z" fill="rgba(0, 0, 0, .075)"></path><path d="M0 309.55L350.99 560L954.62 560L0 179.45000000000002z" fill="rgba(0, 0, 0, .05)"></path><path d="M0 179.45000000000005L954.62 560L1041.53 560L0 69.83000000000004z" fill="rgba(0, 0, 0, .025)"></path></g><defs><mask id="SvgjsMask1002"><rect width="1440" height="560" fill="#ffffff"></rect></mask><linearGradient x1="15.28%" y1="139.29%" x2="84.72%" y2="-39.29%" gradientUnits="userSpaceOnUse" id="SvgjsLinearGradient1003"><stop stop-color="rgba(197, 228, 231, 1)" offset="0"></stop><stop stop-color="rgba(197, 228, 231, 1)" offset="0"></stop></linearGradient></defs></svg>